<svg width="512" height="512" viewBox="0 0 512 512" fill="none" xmlns="http://www.w3.org/2000/svg">
<path d="M188.278 106.042C254.344 93.0429 274.459 118.939 307.104 106.898C315.814 103.686 319.944 104.234 321.155 106.898C324.484 114.22 305.773 137.521 299.509 142.664C291.611 149.132 227.695 185.365 192.481 178.885C191.583 153.81 184.692 136.132 173.936 123.533L168.405 117.054C172.998 111.747 179.601 107.749 188.278 106.042ZM161.345 147.651C162.984 150.858 164.446 154.591 165.62 158.958C164.634 157.192 163.787 155.372 163.081 153.515C162.35 151.592 161.772 149.63 161.345 147.651Z" fill="#ECD1FF"/>
<path d="M188.278 106.042C254.344 93.0429 274.459 118.939 307.104 106.898C315.814 103.686 319.944 104.234 321.155 106.898C324.484 114.22 305.773 137.521 299.509 142.664C291.611 149.132 227.695 185.365 192.481 178.885C191.583 153.81 184.692 136.132 173.936 123.533L168.405 117.054C172.998 111.747 179.601 107.749 188.278 106.042ZM161.345 147.651C162.984 150.858 164.446 154.591 165.62 158.958C164.634 157.192 163.787 155.372 163.081 153.515C162.35 151.592 161.772 149.63 161.345 147.651Z" fill="#ECD1FF"/>
<path d="M72.2451 90.1783C73.4685 84.673 78.9121 81.2271 84.4072 82.4401C109.146 87.936 128.994 96.9388 145.343 107.966C144.088 109.95 142.956 112.016 141.954 114.156C141.732 114.63 141.518 115.106 141.31 115.584C136.516 116.198 130.945 117.323 124.91 119.306C112.276 112.096 97.5242 106.241 79.9824 102.341C74.4874 101.118 71.0217 95.6735 72.2451 90.1783Z" fill="#ECD1FF"/>
<path d="M436.699 277.588C443.684 320.482 437.053 363.473 421.669 393.061C421.669 393.124 421.677 393.181 421.686 393.237C421.699 393.317 421.711 393.398 421.699 393.499C421.398 396.971 421.973 400.635 422.56 404.37C423.454 410.06 424.375 415.917 422.261 421.516C421.35 423.93 419.875 426.296 417.591 428.581C411.31 434.872 392.938 427.317 381.234 429.539C381.204 429.549 381.172 429.539 381.152 429.56C318.623 442.594 273.22 439.33 235.327 421.902C278.685 387.022 326.115 344.38 373.906 296.59C377.592 292.904 381.246 289.219 384.868 285.541C397.162 297.529 416.851 297.437 429.028 285.26L436.699 277.588ZM387.165 238.222L384.579 240.809C378.998 246.39 375.954 253.55 375.449 260.855C369.374 267.093 363.202 273.353 356.935 279.62C306.764 329.791 257.202 374.012 212.673 409.276C207.309 405.741 202.073 401.887 196.931 397.721C240.986 363.316 291.817 318.163 343.646 266.333C349.465 260.514 355.198 254.705 360.844 248.919C369.027 249.027 377.244 245.962 383.488 239.719L386.075 237.132L387.165 238.222ZM332.719 140.613C345.888 146.246 358.787 153.692 371.047 163.259L339.037 195.27C327.236 207.07 326.785 225.927 337.678 238.27C334.046 241.96 330.38 245.659 326.677 249.362C273.999 302.04 222.625 347.478 178.797 381.42C178.347 380.976 177.898 380.531 177.45 380.082C165.857 368.491 156.511 356.284 149.187 343.752C150.857 341.62 152.555 339.468 154.281 337.298L154.284 337.294C162.591 326.844 162.086 311.485 152.269 301.671H152.27C152.124 301.525 151.976 301.381 151.827 301.239C155.092 296.775 158.588 291.833 162.06 286.503C173.327 269.208 185.132 246.715 189.488 219.803L189.489 219.796C190.435 213.941 191.152 208.359 191.659 203.038C201.005 204.249 210.328 203.53 218.483 202.213C232.514 199.946 246.911 195.256 259.651 190.177C272.521 185.046 284.479 179.201 293.814 174.167C302.479 169.494 310.598 164.603 314.717 161.23L314.738 161.213C320.045 156.856 327.202 148.454 332.719 140.613ZM151.117 180.143C155.77 185.834 161.497 190.874 168.245 194.916C167.832 201.284 167.039 208.278 165.797 215.968L165.623 217.011C160.37 247.665 143.304 272.53 129.812 290.649C123.384 252.317 132.104 214.628 150.045 185.178C150.556 183.628 150.891 181.934 151.117 180.143ZM425.615 236.789C427.332 241.177 428.879 245.614 430.261 250.085L412.057 268.29L411.78 268.553C408.882 271.17 404.413 271.099 401.6 268.339C406.037 263.723 410.422 259.121 414.748 254.531L414.756 254.522C419.256 249.742 421.737 243.781 422.22 237.698L424.115 237.191L425.615 236.789ZM388.958 179.289C390.171 180.533 391.357 181.794 392.522 183.067L392.196 184.285L385.567 186.063L388.643 197.543L388.038 199.804C380.182 199.399 372.198 202.309 366.367 208.494L366.366 208.496C362.504 212.593 358.587 216.705 354.625 220.833C353.224 218.048 353.684 214.564 356.008 212.24L356.009 212.238L388.958 179.289ZM196.219 136.403C227.165 125.733 268.244 121.508 308.911 132.395C305.241 137.029 301.65 140.907 299.51 142.664L299.059 143.018C289.453 150.348 227.098 185.255 192.481 178.884C191.909 162.91 188.904 149.94 184.017 139.371C187.888 138.88 191.968 138.056 196.219 136.403ZM161.344 147.651C162.984 150.859 164.446 154.592 165.621 158.959C164.635 157.193 163.787 155.373 163.081 153.516C162.35 151.592 161.772 149.63 161.344 147.651Z" fill="#ECD1FF"/>
<path fill-rule="evenodd" clip-rule="evenodd" d="M85.7733 186.004C112.149 133.1 155.683 139.116 155.683 139.116L91.5156 333.464C89.0315 331.845 87.7865 326.372 88.7299 315.005C89.7893 302.206 86.3807 288.879 82.7381 274.637C76.1441 248.855 68.7834 220.076 85.7733 186.004Z" fill="#ECD1FF"/>
<path d="M115.452 310.468C126.208 293.034 158.578 260.562 165.796 215.968C173.004 171.353 165.083 150.127 155.683 139.116L91.5156 333.464C96.8969 336.973 108.093 322.396 115.452 310.468Z" fill="#ECD1FF"/>
<path fill-rule="evenodd" clip-rule="evenodd" d="M135.497 322.36C136.377 321.252 136.302 319.642 135.3 318.642C134.129 317.471 132.188 317.592 131.153 318.884C61.6992 405.69 25.3196 474.294 43.7623 492.736C71.3932 520.367 211.605 424.951 356.936 279.62C370.865 265.691 384.334 251.811 397.282 238.071C398.683 236.582 398.647 234.249 397.2 232.802L389.273 224.875C387.76 223.364 385.298 223.401 383.83 224.958C370.967 238.603 357.548 252.432 343.647 266.333C211.106 398.873 85.1044 487.761 62.2125 464.867C47.7493 450.404 77.9031 394.784 135.497 322.36Z" fill="#ECD1FF"/>
<path d="M466.799 189.143C469.829 188.331 472.945 190.13 473.758 193.16C474.57 196.191 472.771 199.307 469.74 200.119L466.799 189.143ZM469.74 200.119L417.903 214.009L414.961 203.032L466.799 189.143L469.74 200.119Z" fill="#ECD1FF"/>
<path d="M424.833 155.212C425.646 152.182 428.761 150.383 431.792 151.195C434.824 152.008 436.622 155.123 435.811 158.154L424.833 155.212ZM435.811 158.154L421.92 209.991L410.944 207.05L424.833 155.212L435.811 158.154Z" fill="#ECD1FF"/>
<path d="M444.823 179.474C429.347 163.997 404.61 163.637 389.579 178.669L356.008 212.24C353.108 215.139 353.108 219.848 356.008 222.748C358.91 225.65 363.616 225.65 366.518 222.748L375.566 213.7C381.372 207.895 390.779 207.895 396.585 213.7L410.597 227.712C416.403 233.518 416.403 242.926 410.597 248.731L401.549 257.779C398.648 260.681 398.648 265.389 401.549 268.289C404.449 271.189 409.158 271.189 412.058 268.289L445.628 234.719C460.66 219.687 460.3 194.95 444.823 179.474Z" fill="#ECD1FF"/>
</svg>
